<?xml version="1.0" encoding="UTF-8"?>
<svg xmlns="http://www.w3.org/2000/svg" xmlns:xlink="http://www.w3.org/1999/xlink" width="24px" height="24px" viewBox="0 0 24 24" version="1.1">
<g id="surface1">
<path style=" stroke:none;fill-rule:nonzero;fill:rgb(0%,0%,0%);fill-opacity:1;" d="M 17.8125 4.652344 L 18.667969 4.652344 C 20.175781 4.707031 21.4375 5.230469 22.441406 6.226562 C 23.445312 7.222656 23.964844 8.476562 24 9.988281 L 24 17.347656 C 23.964844 18.855469 23.445312 20.117188 22.441406 21.121094 C 21.4375 22.125 20.179688 22.644531 18.667969 22.679688 L 5.332031 22.679688 C 3.824219 22.644531 2.5625 22.125 1.558594 21.121094 C 0.554688 20.117188 0.0351562 18.859375 0 17.347656 L 0 9.988281 C 0.0351562 8.476562 0.554688 7.222656 1.558594 6.226562 C 2.5625 5.230469 3.820312 4.707031 5.332031 4.652344 L 6.105469 4.652344 L 4.933594 3.53125 C 4.6875 3.296875 4.554688 2.96875 4.558594 2.628906 C 4.558594 2.269531 4.683594 1.96875 4.933594 1.71875 L 4.960938 1.691406 C 5.226562 1.445312 5.53125 1.320312 5.878906 1.320312 C 6.226562 1.320312 6.53125 1.445312 6.800781 1.691406 L 9.652344 4.441406 C 9.722656 4.511719 9.785156 4.582031 9.839844 4.652344 L 14.105469 4.652344 C 14.148438 4.574219 14.203125 4.503906 14.265625 4.441406 L 17.121094 1.691406 C 17.386719 1.445312 17.691406 1.320312 18.039062 1.320312 C 18.386719 1.320312 18.703125 1.472656 18.96875 1.71875 C 19.234375 1.96875 19.359375 2.269531 19.359375 2.628906 C 19.359375 2.980469 19.234375 3.285156 18.988281 3.53125 Z M 5.332031 7.238281 C 4.585938 7.257812 3.960938 7.515625 3.453125 8.011719 C 2.945312 8.511719 2.683594 9.144531 2.667969 9.90625 L 2.667969 17.425781 C 2.683594 18.191406 2.945312 18.820312 3.453125 19.320312 C 3.960938 19.816406 4.585938 20.074219 5.332031 20.09375 L 18.667969 20.09375 C 19.414062 20.074219 20.039062 19.816406 20.546875 19.320312 C 21.054688 18.820312 21.316406 18.191406 21.332031 17.425781 L 21.332031 9.90625 C 21.316406 9.140625 21.054688 8.511719 20.546875 8.011719 C 20.039062 7.515625 19.414062 7.257812 18.667969 7.238281 Z M 8 11.105469 C 8.371094 11.105469 8.683594 11.230469 8.933594 11.480469 C 9.183594 11.730469 9.316406 12.050781 9.332031 12.441406 L 9.332031 13.613281 C 9.316406 14.003906 9.183594 14.324219 8.933594 14.574219 C 8.683594 14.824219 8.371094 14.945312 8 14.945312 C 7.628906 14.945312 7.316406 14.820312 7.066406 14.574219 C 6.816406 14.324219 6.683594 14.003906 6.667969 13.613281 L 6.667969 12.441406 C 6.667969 12.066406 6.796875 11.75 7.054688 11.492188 C 7.3125 11.234375 7.628906 11.105469 8 11.105469 Z M 16 11.105469 C 16.371094 11.105469 16.683594 11.230469 16.933594 11.480469 C 17.183594 11.730469 17.316406 12.050781 17.332031 12.441406 L 17.332031 13.613281 C 17.316406 14.003906 17.183594 14.324219 16.933594 14.574219 C 16.683594 14.824219 16.371094 14.945312 16 14.945312 C 15.628906 14.945312 15.316406 14.820312 15.066406 14.574219 C 14.816406 14.324219 14.683594 14.003906 14.667969 13.613281 L 14.667969 12.441406 C 14.683594 12.050781 14.816406 11.730469 15.066406 11.480469 C 15.316406 11.230469 15.628906 11.105469 16 11.105469 Z M 16 11.105469 "/>
</g>
</svg>
